<svg width="20" height="20" viewBox="0 0 20 20" fill="none" xmlns="http://www.w3.org/2000/svg">
<path d="M15 19.5H5C4.17157 19.5 3.5 18.8284 3.5 18V2C3.5 1.17157 4.17157 0.5 5 0.5H11.1716C11.5694 0.5 11.9509 0.658035 12.2322 0.93934L14.1464 2.85355L16.0607 4.76777C16.342 5.04907 16.5 5.4306 16.5 5.82843V18C16.5 18.8284 15.8284 19.5 15 19.5Z" stroke="black"/>
<rect x="19.5" y="8.5" width="7" height="19" rx="1.5" transform="rotate(90 19.5 8.5)" fill="black" stroke="black"/>
<path d="M7.9873 12.6465C7.93457 13.0977 7.76758 13.4463 7.48633 13.6924C7.20703 13.9365 6.83496 14.0586 6.37012 14.0586C5.86621 14.0586 5.46191 13.8779 5.15723 13.5166C4.85449 13.1553 4.70312 12.6719 4.70312 12.0664V11.6562C4.70312 11.2598 4.77344 10.9111 4.91406 10.6104C5.05664 10.3096 5.25781 10.0791 5.51758 9.91895C5.77734 9.75684 6.07812 9.67578 6.41992 9.67578C6.87305 9.67578 7.23633 9.80273 7.50977 10.0566C7.7832 10.3086 7.94238 10.6582 7.9873 11.1055H7.42188C7.37305 10.7656 7.2666 10.5195 7.10254 10.3672C6.94043 10.2148 6.71289 10.1387 6.41992 10.1387C6.06055 10.1387 5.77832 10.2715 5.57324 10.5371C5.37012 10.8027 5.26855 11.1807 5.26855 11.6709V12.084C5.26855 12.5469 5.36523 12.915 5.55859 13.1885C5.75195 13.4619 6.02246 13.5986 6.37012 13.5986C6.68262 13.5986 6.92188 13.5283 7.08789 13.3877C7.25586 13.2451 7.36719 12.998 7.42188 12.6465H7.9873ZM10.0146 12.0986C9.53223 11.96 9.18066 11.79 8.95996 11.5889C8.74121 11.3857 8.63184 11.1357 8.63184 10.8389C8.63184 10.5029 8.76562 10.2256 9.0332 10.0068C9.30273 9.78613 9.65234 9.67578 10.082 9.67578C10.375 9.67578 10.6357 9.73242 10.8643 9.8457C11.0947 9.95898 11.2725 10.1152 11.3975 10.3145C11.5244 10.5137 11.5879 10.7314 11.5879 10.9678H11.0225C11.0225 10.71 10.9404 10.5078 10.7764 10.3613C10.6123 10.2129 10.3809 10.1387 10.082 10.1387C9.80469 10.1387 9.58789 10.2002 9.43164 10.3232C9.27734 10.4443 9.2002 10.6133 9.2002 10.8301C9.2002 11.0039 9.27344 11.1514 9.41992 11.2725C9.56836 11.3916 9.81934 11.501 10.1729 11.6006C10.5283 11.7002 10.8057 11.8105 11.0049 11.9316C11.2061 12.0508 11.3545 12.1904 11.4502 12.3506C11.5479 12.5107 11.5967 12.6992 11.5967 12.916C11.5967 13.2617 11.4619 13.5391 11.1924 13.748C10.9229 13.9551 10.5625 14.0586 10.1113 14.0586C9.81836 14.0586 9.54492 14.0029 9.29102 13.8916C9.03711 13.7783 8.84082 13.624 8.70215 13.4287C8.56543 13.2334 8.49707 13.0117 8.49707 12.7637H9.0625C9.0625 13.0215 9.15723 13.2256 9.34668 13.376C9.53809 13.5244 9.79297 13.5986 10.1113 13.5986C10.4082 13.5986 10.6357 13.5381 10.7939 13.417C10.9521 13.2959 11.0312 13.1309 11.0312 12.9219C11.0312 12.7129 10.958 12.5518 10.8115 12.4385C10.665 12.3232 10.3994 12.21 10.0146 12.0986ZM13.7324 13.2529L14.9512 9.73438H15.5664L13.9844 14H13.4863L11.9072 9.73438H12.5195L13.7324 13.2529Z" fill="white"/>
</svg>
