<svg width="20" height="20" viewBox="0 0 20 20" fill="none" xmlns="http://www.w3.org/2000/svg">
<path d="M15 19.5H5C4.17157 19.5 3.5 18.8284 3.5 18V2C3.5 1.17157 4.17157 0.5 5 0.5H11.1716C11.5694 0.5 11.9509 0.658035 12.2322 0.93934L14.1464 2.85355L16.0607 4.76777C16.342 5.04907 16.5 5.4306 16.5 5.82843V18C16.5 18.8284 15.8284 19.5 15 19.5Z" stroke="black"/>
<rect x="19.5" y="8.5" width="7" height="19" rx="1.5" transform="rotate(90 19.5 8.5)" fill="black" stroke="black"/>
<path d="M5.53809 12.3301V14H4.97559V9.73438H6.54883C7.01562 9.73438 7.38086 9.85352 7.64453 10.0918C7.91016 10.3301 8.04297 10.6455 8.04297 11.0381C8.04297 11.4521 7.91309 11.7715 7.65332 11.9961C7.39551 12.2188 7.02539 12.3301 6.54297 12.3301H5.53809ZM5.53809 11.8701H6.54883C6.84961 11.8701 7.08008 11.7998 7.24023 11.6592C7.40039 11.5166 7.48047 11.3115 7.48047 11.0439C7.48047 10.79 7.40039 10.5869 7.24023 10.4346C7.08008 10.2822 6.86035 10.2031 6.58105 10.1973H5.53809V11.8701ZM8.76074 14V9.73438H9.96484C10.3359 9.73438 10.6641 9.81641 10.9492 9.98047C11.2344 10.1445 11.4541 10.3779 11.6084 10.6807C11.7646 10.9834 11.8438 11.3311 11.8457 11.7236V11.9961C11.8457 12.3984 11.7676 12.751 11.6113 13.0537C11.457 13.3564 11.2354 13.5889 10.9463 13.751C10.6592 13.9131 10.3242 13.9961 9.94141 14H8.76074ZM9.32324 10.1973V13.54H9.91504C10.3486 13.54 10.6855 13.4053 10.9258 13.1357C11.168 12.8662 11.2891 12.4824 11.2891 11.9844V11.7354C11.2891 11.251 11.1748 10.875 10.9463 10.6074C10.7197 10.3379 10.3975 10.2012 9.97949 10.1973H9.32324ZM15.0508 12.1162H13.2607V14H12.6982V9.73438H15.3408V10.1973H13.2607V11.6562H15.0508V12.1162Z" fill="white"/>
</svg>
