<svg width="20" height="20" viewBox="0 0 20 20" fill="none" xmlns="http://www.w3.org/2000/svg">
<path d="M15 19.5H5C4.17157 19.5 3.5 18.8284 3.5 18V2C3.5 1.17157 4.17157 0.5 5 0.5H11.1716C11.5694 0.5 11.9509 0.658035 12.2322 0.93934L14.1464 2.85355L16.0607 4.76777C16.342 5.04907 16.5 5.4306 16.5 5.82843V18C16.5 18.8284 15.8284 19.5 15 19.5Z" stroke="black"/>
<rect x="19.5" y="8.5" width="7" height="19" rx="1.5" transform="rotate(90 19.5 8.5)" fill="black" stroke="black"/>
<path d="M6.11035 11.3691L7.13281 9.73438H7.79492L6.44727 11.8496L7.82715 14H7.15918L6.11035 12.3359L5.05566 14H4.39062L5.77344 11.8496L4.42285 9.73438H5.08203L6.11035 11.3691ZM9.0459 13.54H11.0674V14H8.48047V9.73438H9.0459V13.54ZM12.9658 12.0986C12.4834 11.96 12.1318 11.79 11.9111 11.5889C11.6924 11.3857 11.583 11.1357 11.583 10.8389C11.583 10.5029 11.7168 10.2256 11.9844 10.0068C12.2539 9.78613 12.6035 9.67578 13.0332 9.67578C13.3262 9.67578 13.5869 9.73242 13.8154 9.8457C14.0459 9.95898 14.2236 10.1152 14.3486 10.3145C14.4756 10.5137 14.5391 10.7314 14.5391 10.9678H13.9736C13.9736 10.71 13.8916 10.5078 13.7275 10.3613C13.5635 10.2129 13.332 10.1387 13.0332 10.1387C12.7559 10.1387 12.5391 10.2002 12.3828 10.3232C12.2285 10.4443 12.1514 10.6133 12.1514 10.8301C12.1514 11.0039 12.2246 11.1514 12.3711 11.2725C12.5195 11.3916 12.7705 11.501 13.124 11.6006C13.4795 11.7002 13.7568 11.8105 13.9561 11.9316C14.1572 12.0508 14.3057 12.1904 14.4014 12.3506C14.499 12.5107 14.5479 12.6992 14.5479 12.916C14.5479 13.2617 14.4131 13.5391 14.1436 13.748C13.874 13.9551 13.5137 14.0586 13.0625 14.0586C12.7695 14.0586 12.4961 14.0029 12.2422 13.8916C11.9883 13.7783 11.792 13.624 11.6533 13.4287C11.5166 13.2334 11.4482 13.0117 11.4482 12.7637H12.0137C12.0137 13.0215 12.1084 13.2256 12.2979 13.376C12.4893 13.5244 12.7441 13.5986 13.0625 13.5986C13.3594 13.5986 13.5869 13.5381 13.7451 13.417C13.9033 13.2959 13.9824 13.1309 13.9824 12.9219C13.9824 12.7129 13.9092 12.5518 13.7627 12.4385C13.6162 12.3232 13.3506 12.21 12.9658 12.0986Z" fill="white"/>
</svg>
